<svg xmlns:xsi="https://www.w3.org/2001/XMLSchema-instance"
 xsi:noNamespaceSchemaLocation="svgBG1.xsd" xmlns="http://www.w3.org/2000/svg" viewBox="0 0 2560 1600" preserveAspectRatio="xMidYMid" width="2560" height="1600" style="shape-rendering: auto; display: block; background: rgb(255, 255, 255);"><g data-idx="1"><defs data-idx="2">
  <path transform="matrix(0.30000001192092896,0,0,0.30000001192092896,0,0)" stroke-width="4.333333333333334" stroke="inherit" fill="none" d="M-35 -35L35 -35L35 35L-35 35Z" id="path-nq4q5u6dq7r-1" data-idx="3"></path>
  <path transform="matrix(0.30000001192092896,0,0,0.30000001192092896,0,0)" stroke-width="4.333333333333334" stroke="inherit" fill="none" d="M0 -37A37 37 0 0 1 0 37A37 37 0 0 1 0 -37" id="path-nq4q5u6dq7r-2" data-idx="4"></path>
  <path transform="matrix(0.30000001192092896,0,0,0.30000001192092896,0,0)" stroke-width="4.333333333333334" stroke="inherit" fill="none" d="M0 -34.641L40 34.641L-40 34.641Z" id="path-nq4q5u6dq7r-3" data-idx="5"></path>
</defs><path stroke="none" fill="none" d="M 48.43891404302957 1018.0279003543922
c 0 39.37757855071128 -9.634939432620843 11.310581073076643 -20.945520505697488 11.310581073076643
S 6.547873031634591 1057.4054789051033 6.547873031634591 1018.0279003543922
s 9.634939432620843 -11.310581073076643 20.945520505697488 -11.310581073076643
S 48.43891404302957 978.6503218036809 48.43891404302957 1018.0279003543922
z" id="path0" data-idx="6"></path>
<use stroke="#37ec94" y="0" x="0" href="#path-nq4q5u6dq7r-3" data-idx="7" transform="matrix(1,0,0,1,39.233360290527344,999.7931518554688)">
  
</use><path stroke="none" fill="none" d="M 117.7668833364447 1260.6440620616527
c 0 51.099746023987585 -12.503129346294834 14.677586623911328 -27.180715970206162 14.677586623911328
S 63.405451396032376 1311.7438080856402 63.405451396032376 1260.6440620616527
s 12.503129346294834 -14.677586623911328 27.180715970206162 -14.677586623911328
S 117.7668833364447 1209.544316037665 117.7668833364447 1260.6440620616527
z" id="path1" data-idx="10"></path>
<use stroke="#1654c0" y="0" x="0" href="#path-nq4q5u6dq7r-2" data-idx="11" transform="matrix(1,0,0,1,90.27174377441406,1245.9605712890625)">
  
</use><path stroke="none" fill="none" d="M 119.00706354296815 116.94499640634936
c 0 42.769528153329574 -10.464884548155107 12.284864469573389 -22.749749017728497 12.284864469573389
S 73.50756550751117 159.71452455967892 73.50756550751117 116.94499640634936
s 10.464884548155107 -12.284864469573389 22.749749017728497 -12.284864469573389
S 119.00706354296815 74.17546825301979 119.00706354296815 116.94499640634936
z" id="path2" data-idx="14"></path>
<use stroke="#912abb" y="0" x="0" href="#path-nq4q5u6dq7r-2" data-idx="15" transform="matrix(1,0,0,1,76.52908325195312,94.8936996459961)">
  
</use><path stroke="none" fill="none" d="M 190.07661221975943 230.3471748196912
c 0 63.152385522052526 -15.452179436246892 18.13951499037679 -33.59169442662368 18.13951499037679
S 122.89322336651205 293.49956034174375 122.89322336651205 230.3471748196912
s 15.452179436246892 -18.13951499037679 33.59169442662368 -18.13951499037679
S 190.07661221975943 167.19478929763866 190.07661221975943 230.3471748196912
z" id="path3" data-idx="18"></path>
<use stroke="#37ec94" y="0" x="0" href="#path-nq4q5u6dq7r-1" data-idx="19" transform="matrix(1,0,0,1,131.52488708496094,263.7210998535156)">
  
</use><path stroke="none" fill="none" d="M 213.53198221660713 1127.9677184174698
c 0 50.46148810387915 -12.34695985520447 14.49425722132699 -26.84121707653146 14.49425722132699
S 159.84954806354423 1178.429206521349 159.84954806354423 1127.9677184174698
s 12.34695985520447 -14.49425722132699 26.84121707653146 -14.49425722132699
S 213.53198221660713 1077.5062303135905 213.53198221660713 1127.9677184174698
z" id="path4" data-idx="22"></path>
<use stroke="#37ec94" y="0" x="0" href="#path-nq4q5u6dq7r-3" data-idx="23" transform="matrix(1,0,0,1,159.90213012695312,1122.6156005859375)">
  
</use><path stroke="none" fill="none" d="M 219.52733037473402 266.533566845864
c 0 29.747434088481256 -7.278627489734775 8.544475748819085 -15.823103238553859 8.544475748819085
S 187.88112389762628 296.2810009343453 187.88112389762628 266.533566845864
s 7.278627489734775 -8.544475748819085 15.823103238553859 -8.544475748819085
S 219.52733037473402 236.78613275738275 219.52733037473402 266.533566845864
z" id="path5" data-idx="26"></path>
<use stroke="#912abb" y="0" x="0" href="#path-nq4q5u6dq7r-1" data-idx="27" transform="matrix(1,0,0,1,188.69827270507812,278.8074035644531)">
  
</use><path stroke="none" fill="none" d="M 261.51695371166784 302.0417786595067
c 0 26.79200733232078 -6.555491155780615 7.695576574177245 -14.25106772995786 7.695576574177245
S 233.01481825175213 328.8337859918275 233.01481825175213 302.0417786595067
s 6.555491155780615 -7.695576574177245 14.25106772995786 -7.695576574177245
S 261.51695371166784 275.2497713271859 261.51695371166784 302.0417786595067
z" id="path6" data-idx="30"></path>
<use stroke="#37ec94" y="0" x="0" href="#path-nq4q5u6dq7r-1" data-idx="31" transform="matrix(1,0,0,1,258.825439453125,316.3085632324219)">
  
</use><path stroke="none" fill="none" d="M 330.636898458413 820.349797468027
c 0 57.776530848387615 -14.136810739499097 16.59538652028155 -30.732197259780648 16.59538652028155
S 269.17250393885166 878.1263283164146 269.17250393885166 820.349797468027
s 14.136810739499097 -16.59538652028155 30.732197259780648 -16.59538652028155
S 330.636898458413 762.5732666196393 330.636898458413 820.349797468027
z" id="path7" data-idx="34"></path>
<use stroke="#37ec94" y="0" x="0" href="#path-nq4q5u6dq7r-3" data-idx="35" transform="matrix(1,0,0,1,281.9227600097656,847.7388305664062)">
  
</use><path stroke="none" fill="none" d="M 332.08566613034384 973.4084991565895
c 0 26.13945305436895 -6.395823619686019 7.508140770935762 -13.90396439062178 7.508140770935762
S 304.2777373491002 999.5479522109584 304.2777373491002 973.4084991565895
s 6.395823619686019 -7.508140770935762 13.90396439062178 -7.508140770935762
S 332.08566613034384 947.2690461022206 332.08566613034384 973.4084991565895
z" id="path8" data-idx="38"></path>
<use stroke="#1654c0" y="0" x="0" href="#path-nq4q5u6dq7r-1" data-idx="39" transform="matrix(1,0,0,1,315.55352783203125,965.2136840820312)">
  
</use><path stroke="none" fill="none" d="M 390.22635558748544 1560.773622375408
c 0 40.23994824957763 -9.84594478447112 11.558283007857405 -21.404227792328527 11.558283007857405
S 347.4179000028284 1601.0135706249855 347.4179000028284 1560.773622375408
s 9.84594478447112 -11.558283007857405 21.404227792328527 -11.558283007857405
S 390.22635558748544 1520.5336741258304 390.22635558748544 1560.773622375408
z" id="path9" data-idx="42"></path>
<use stroke="#1654c0" y="0" x="0" href="#path-nq4q5u6dq7r-1" data-idx="43" transform="matrix(1,0,0,1,347.5871276855469,1552.712646484375)">
  
</use><path stroke="none" fill="none" d="M 444.20507026754115 716.5143408148397
c 0 43.41877942792355 -10.62374390257704 12.47135153780783 -23.09509544038487 12.47135153780783
S 398.01487938677144 759.9331202427633 398.01487938677144 716.5143408148397
s 10.62374390257704 -12.47135153780783 23.09509544038487 -12.47135153780783
S 444.20507026754115 673.0955613869161 444.20507026754115 716.5143408148397
z" id="path10" data-idx="46"></path>
<use stroke="#37ec94" y="0" x="0" href="#path-nq4q5u6dq7r-1" data-idx="47" transform="matrix(1,0,0,1,443.876953125,727.6676025390625)">
  
</use><path stroke="none" fill="none" d="M 475.01848620887665 300.0318638189307
c 0 39.81289292690311 -9.741452524667782 11.435618181131746 -21.17707070579953 11.435618181131746
S 432.66434479727764 339.84475674583376 432.66434479727764 300.0318638189307
s 9.741452524667782 -11.435618181131746 21.17707070579953 -11.435618181131746
S 475.01848620887665 260.2189708920276 475.01848620887665 300.0318638189307
z" id="path11" data-idx="50"></path>
<use stroke="#37ec94" y="0" x="0" href="#path-nq4q5u6dq7r-2" data-idx="51" transform="matrix(1,0,0,1,472.63800048828125,280.0531311035156)">
  
</use><path stroke="none" fill="none" d="M 509.5114281531822 1044.6254195144068
c 0 62.10941987745368 -15.196985714696112 17.839939752034567 -33.03692546673068 17.839939752034567
S 443.4375772197208 1106.7348393918605 443.4375772197208 1044.6254195144068
s 15.196985714696112 -17.839939752034567 33.03692546673068 -17.839939752034567
S 509.5114281531822 982.5159996369531 509.5114281531822 1044.6254195144068
z" id="path12" data-idx="54"></path>
<use stroke="#1654c0" y="0" x="0" href="#path-nq4q5u6dq7r-1" data-idx="55" transform="matrix(1,0,0,1,445.85772705078125,1072.9466552734375)">
  
</use><path stroke="none" fill="none" d="M 552.3682671469066 254.4081151870352
c 0 65.41831210464319 -16.006608280923334 18.790366242823048 -34.79697452374638 18.790366242823048
S 482.7743180994139 319.8264272916784 482.7743180994139 254.4081151870352
s 16.006608280923334 -18.790366242823048 34.79697452374638 -18.790366242823048
S 552.3682671469066 188.98980308239203 552.3682671469066 254.4081151870352
z" id="path13" data-idx="58"></path>
<use stroke="#1654c0" y="0" x="0" href="#path-nq4q5u6dq7r-1" data-idx="59" transform="matrix(1,0,0,1,520.1531372070312,273.48077392578125)">
  
</use><path stroke="none" fill="none" d="M 573.3122841596169 1085.7786642433796
c 0 35.82874270771659 -8.76660725827108 10.291234607535618 -19.057841865806697 10.291234607535618
S 535.1966004280034 1121.6074069510962 535.1966004280034 1085.7786642433796
s 8.76660725827108 -10.291234607535618 19.057841865806697 -10.291234607535618
S 573.3122841596169 1049.949921535663 573.3122841596169 1085.7786642433796
z" id="path14" data-idx="62"></path>
<use stroke="#912abb" y="0" x="0" href="#path-nq4q5u6dq7r-2" data-idx="63" transform="matrix(1,0,0,1,542.7837524414062,1103.023681640625)">
  
</use><path stroke="none" fill="none" d="M 585.061686221846 1055.4962477706667
c 0 22.304781394682234 -5.457552894443524 6.40669252825979 -11.864245422703315 6.40669252825979
S 561.3331953764393 1077.801029165349 561.3331953764393 1055.4962477706667
s 5.457552894443524 -6.40669252825979 11.864245422703315 -6.40669252825979
S 585.061686221846 1033.1914663759844 585.061686221846 1055.4962477706667
z" id="path15" data-idx="66"></path>
<use stroke="#1654c0" y="0" x="0" href="#path-nq4q5u6dq7r-1" data-idx="67" transform="matrix(1,0,0,1,561.494140625,1061.1180419921875)">
  
</use><path stroke="none" fill="none" d="M 655.5627970402422 1098.2056270056923
c 0 57.97335215232286 -14.184969143653465 16.65192029907146 -30.836889442724924 16.65192029907146
S 593.8890181547924 1156.1789791580152 593.8890181547924 1098.2056270056923
s 14.184969143653465 -16.65192029907146 30.836889442724924 -16.65192029907146
S 655.5627970402422 1040.2322748533695 655.5627970402422 1098.2056270056923
z" id="path16" data-idx="70"></path>
<use stroke="#1654c0" y="0" x="0" href="#path-nq4q5u6dq7r-1" data-idx="71" transform="matrix(1,0,0,1,598.4825439453125,1128.5335693359375)">
  
</use><path stroke="none" fill="none" d="M 678.9898136023714 706.0764239397101
c 0 60.35265250772718 -14.767138379550266 17.335336358602486 -32.10247473815275 17.335336358602486
S 614.7848641260659 766.4290764474373 614.7848641260659 706.0764239397101
s 14.767138379550266 -17.335336358602486 32.10247473815275 -17.335336358602486
S 678.9898136023714 645.723771431983 678.9898136023714 706.0764239397101
z" id="path17" data-idx="74"></path>
<use stroke="#1654c0" y="0" x="0" href="#path-nq4q5u6dq7r-1" data-idx="75" transform="matrix(1,0,0,1,636.2818603515625,727.849365234375)">
  
</use><path stroke="none" fill="none" d="M 701.6553951806137 220.9719245422346
c 0 30.69855095017283 -7.511347572914628 8.81766888994326 -16.329016462857886 8.81766888994326
S 668.9973622548979 251.67047549240743 668.9973622548979 220.9719245422346
s 7.511347572914628 -8.81766888994326 16.329016462857886 -8.81766888994326
S 701.6553951806137 190.27337359206177 701.6553951806137 220.9719245422346
z" id="path18" data-idx="78"></path>
<use stroke="#1654c0" y="0" x="0" href="#path-nq4q5u6dq7r-2" data-idx="79" transform="matrix(1,0,0,1,690.1846923828125,210.28353881835938)">
  
</use><path stroke="none" fill="none" d="M 760.9374586021737 895.7384199305926
c 0 53.934469977974196 -13.196732015887301 15.49181584473727 -28.68854786062457 15.49181584473727
S 703.5603628809246 949.6728899085668 703.5603628809246 895.7384199305926
s 13.196732015887301 -15.49181584473727 28.68854786062457 -15.49181584473727
S 760.9374586021737 841.8039499526184 760.9374586021737 895.7384199305926
z" id="path19" data-idx="82"></path>
<use stroke="#37ec94" y="0" x="0" href="#path-nq4q5u6dq7r-1" data-idx="83" transform="matrix(1,0,0,1,703.8001708984375,906.8135375976562)">
  
</use><path stroke="none" fill="none" d="M 798.0826590424956 666.8054119756839
c 0 48.953697603774174 -11.978032392412828 14.061168460658541 -26.03920085307137 14.061168460658541
S 746.0042573363528 715.759109579458 746.0042573363528 666.8054119756839
s 11.978032392412828 -14.061168460658541 26.03920085307137 -14.061168460658541
S 798.0826590424956 617.8517143719098 798.0826590424956 666.8054119756839
z" id="path20" data-idx="86"></path>
<use stroke="#1654c0" y="0" x="0" href="#path-nq4q5u6dq7r-2" data-idx="87" transform="matrix(1,0,0,1,796.9522705078125,647.69580078125)">
  
</use><path stroke="none" fill="none" d="M 822.0504366010632 759.5224141066805
c 0 26.598603454876013 -6.508168930448385 7.640024396613323 -14.148193327061708 7.640024396613323
S 793.7540499469399 786.1210175615565 793.7540499469399 759.5224141066805
s 6.508168930448385 -7.640024396613323 14.148193327061708 -7.640024396613323
S 822.0504366010632 732.9238106518044 822.0504366010632 759.5224141066805
z" id="path21" data-idx="90"></path>
<use stroke="#912abb" y="0" x="0" href="#path-nq4q5u6dq7r-3" data-idx="91" transform="matrix(1,0,0,1,818.775634765625,745.3667602539062)">
  
</use><path stroke="none" fill="none" d="M 847.3282990675126 782.484683269237
c 0 36.71446345500307 -8.983326164522026 10.545643758351945 -19.52896992287397 10.545643758351945
S 808.2703592217646 819.1991467242401 808.2703592217646 782.484683269237
s 8.983326164522026 -10.545643758351945 19.52896992287397 -10.545643758351945
S 847.3282990675126 745.770219814234 847.3282990675126 782.484683269237
z" id="path22" data-idx="94"></path>
<use stroke="#37ec94" y="0" x="0" href="#path-nq4q5u6dq7r-2" data-idx="95" transform="matrix(1,0,0,1,808.3514404296875,776.9630126953125)">
  
</use><path stroke="none" fill="none" d="M 912.099583396805 1470.4131557010285
c 0 50.98575145290872 -12.475237057626602 14.644843502431229 -27.12008056005783 14.644843502431229
S 857.8594222766892 1521.3989071539372 857.8594222766892 1470.4131557010285
s 12.475237057626602 -14.644843502431229 27.12008056005783 -14.644843502431229
S 912.099583396805 1419.4274042481197 912.099583396805 1470.4131557010285
z" id="path23" data-idx="98"></path>
<use stroke="#1654c0" y="0" x="0" href="#path-nq4q5u6dq7r-1" data-idx="99" transform="matrix(1,0,0,1,870.0784912109375,1447.0577392578125)">
  
</use><path stroke="none" fill="none" d="M 926.0628624765369 1289.4373490814457
c 0 39.61536404110327 -9.693120988780587 11.378881160742429 -21.072002149523016 11.378881160742429
S 883.918858177491 1329.052713122549 883.918858177491 1289.4373490814457
s 9.693120988780587 -11.378881160742429 21.072002149523016 -11.378881160742429
S 926.0628624765369 1249.8219850403425 926.0628624765369 1289.4373490814457
z" id="path24" data-idx="102"></path>
<use stroke="#1654c0" y="0" x="0" href="#path-nq4q5u6dq7r-2" data-idx="103" transform="matrix(1,0,0,1,906.54541015625,1277.889404296875)">
  
</use><path stroke="none" fill="none" d="M 951.6847878539023 311.31719519837645
c 0 39.242932223734364 -9.601994054743514 11.271906064264126 -20.87390011900764 11.271906064264126
S 909.936987615887 350.56012742211084 909.936987615887 311.31719519837645
s 9.601994054743514 -11.271906064264126 20.87390011900764 -11.271906064264126
S 951.6847878539023 272.07426297464207 951.6847878539023 311.31719519837645
z" id="path25" data-idx="106"></path>
<use stroke="#1654c0" y="0" x="0" href="#path-nq4q5u6dq7r-2" data-idx="107" transform="matrix(1,0,0,1,920.7590942382812,294.5679931640625)">
  
</use><path stroke="none" fill="none" d="M 988.8859933234303 501.0399556500607
c 0 54.74134614856015 -13.394159164009396 15.72357814905451 -29.117737313063905 15.72357814905451
S 930.6505186973025 555.7813017986208 930.6505186973025 501.0399556500607
s 13.394159164009396 -15.72357814905451 29.117737313063905 -15.72357814905451
S 988.8859933234303 446.29860950150055 988.8859933234303 501.0399556500607
z" id="path26" data-idx="110"></path>
<use stroke="#37ec94" y="0" x="0" href="#path-nq4q5u6dq7r-2" data-idx="111" transform="matrix(1,0,0,1,967.44921875,519.4415283203125)">
  
</use><path stroke="none" fill="none" d="M 1043.473564369359 527.484045067165
c 0 40.879755681834396 -10.00249341151267 11.742057483080094 -21.744550894592763 11.742057483080094
S 999.9844625801736 568.3638007489993 999.9844625801736 527.484045067165
s 10.00249341151267 -11.742057483080094 21.744550894592763 -11.742057483080094
S 1043.473564369359 486.60428938533056 1043.473564369359 527.484045067165
z" id="path27" data-idx="114"></path>
<use stroke="#912abb" y="0" x="0" href="#path-nq4q5u6dq7r-3" data-idx="115" transform="matrix(1,0,0,1,1014.1092529296875,512.4059448242188)">
  
</use><path stroke="none" fill="none" d="M 1044.1655517549632 252.91373939863405
c 0 19.640016806688045 -4.805536027168351 5.64128142319763 -10.446817450365982 5.64128142319763
S 1023.2719168542313 272.5537562053221 1023.2719168542313 252.91373939863405
s 4.805536027168351 -5.64128142319763 10.446817450365982 -5.64128142319763
S 1044.1655517549632 233.273722591946 1044.1655517549632 252.91373939863405
z" id="path28" data-idx="118"></path>
<use stroke="#1654c0" y="0" x="0" href="#path-nq4q5u6dq7r-2" data-idx="119" transform="matrix(1,0,0,1,1043.998291015625,247.61451721191406)">
  
</use><path stroke="none" fill="none" d="M 1115.8164325247942 348.21636497422367
c 0 53.75273000794621 -13.15226372534854 15.439613938452636 -28.591877663801174 15.439613938452636
S 1058.632677197192 401.96909498216985 1058.632677197192 348.21636497422367
s 13.15226372534854 -15.439613938452636 28.591877663801174 -15.439613938452636
S 1115.8164325247942 294.4636349662775 1115.8164325247942 348.21636497422367
z" id="path29" data-idx="122"></path>
<use stroke="#912abb" y="0" x="0" href="#path-nq4q5u6dq7r-1" data-idx="123" transform="matrix(1,0,0,1,1082.975830078125,364.549072265625)">
  
</use><path stroke="none" fill="none" d="M 1119.3066354305524 829.0908938646517
c 0 30.996724283419848 -7.584304877858047 8.903314421833361 -16.487619299691406 8.903314421833361
S 1086.3313968311695 860.0876181480716 1086.3313968311695 829.0908938646517
s 7.584304877858047 -8.903314421833361 16.487619299691406 -8.903314421833361
S 1119.3066354305524 798.0941695812318 1119.3066354305524 829.0908938646517
z" id="path30" data-idx="126"></path>
<use stroke="#912abb" y="0" x="0" href="#path-nq4q5u6dq7r-3" data-idx="127" transform="matrix(1,0,0,1,1091.144775390625,845.2153930664062)">
  
</use><path stroke="none" fill="none" d="M 1177.220260083092 322.6677925673926
c 0 35.115076316012406 -8.591986758173247 10.086245324812074 -18.67823208298532 10.086245324812074
S 1139.8637959171215 357.782868883405 1139.8637959171215 322.6677925673926
s 8.591986758173247 -10.086245324812074 18.67823208298532 -10.086245324812074
S 1177.220260083092 287.5527162513802 1177.220260083092 322.6677925673926
z" id="path31" data-idx="130"></path>
<use stroke="#1654c0" y="0" x="0" href="#path-nq4q5u6dq7r-2" data-idx="131" transform="matrix(1,0,0,1,1139.8792724609375,320.19287109375)">
  
</use><path stroke="none" fill="none" d="M 1202.776001389013 456.772028043001
c 0 24.383060938572118 -5.966068101991049 7.003645163206886 -12.969713265197935 7.003645163206886
S 1176.836574858617 481.1550889815731 1176.836574858617 456.772028043001
s 5.966068101991049 -7.003645163206886 12.969713265197935 -7.003645163206886
S 1202.776001389013 432.3889671044289 1202.776001389013 456.772028043001
z" id="path32" data-idx="134"></path>
<use stroke="#912abb" y="0" x="0" href="#path-nq4q5u6dq7r-1" data-idx="135" transform="matrix(1,0,0,1,1193.4188232421875,448.4503479003906)">
  
</use><path stroke="none" fill="none" d="M 1237.4142719056133 1560.4741724438088
c 0 19.66285345068011 -4.811123716655771 5.64784088476982 -10.458964601425592 5.64784088476982
S 1216.4963427027621 1580.137025894489 1216.4963427027621 1560.4741724438088
s 4.811123716655771 -5.64784088476982 10.458964601425592 -5.64784088476982
S 1237.4142719056133 1540.8113189931287 1237.4142719056133 1560.4741724438088
z" id="path33" data-idx="138"></path>
<use stroke="#37ec94" y="0" x="0" href="#path-nq4q5u6dq7r-1" data-idx="139" transform="matrix(1,0,0,1,1221.59765625,1569.145263671875)">
  
</use><path stroke="none" fill="none" d="M 1311.4288633375236 1525.3764750193639
c 0 63.352113835496446 -15.501049129961894 18.196883761259617 -33.69793289122151 18.196883761259617
S 1244.0329975550803 1588.7285888548604 1244.0329975550803 1525.3764750193639
s 15.501049129961894 -18.196883761259617 33.69793289122151 -18.196883761259617
S 1311.4288633375236 1462.0243611838673 1311.4288633375236 1525.3764750193639
z" id="path34" data-idx="142"></path>
<use stroke="#1654c0" y="0" x="0" href="#path-nq4q5u6dq7r-2" data-idx="143" transform="matrix(1,0,0,1,1244.0533447265625,1529.1695556640625)">
  
</use><path stroke="none" fill="none" d="M 1317.8673535020905 563.939567584998
c 0 41.725762649661895 -10.209495116406632 11.985059484477352 -22.194554600883983 11.985059484477352
S 1273.4782443003226 605.6653302346599 1273.4782443003226 563.939567584998
s 10.209495116406632 -11.985059484477352 22.194554600883983 -11.985059484477352
S 1317.8673535020905 522.2138049353362 1317.8673535020905 563.939567584998
z" id="path35" data-idx="146"></path>
<use stroke="#1654c0" y="0" x="0" href="#path-nq4q5u6dq7r-2" data-idx="147" transform="matrix(1,0,0,1,1273.583984375,557.2755126953125)">
  
</use><path stroke="none" fill="none" d="M 1361.455668313853 99.1314407592443
c 0 55.678657948745865 -13.623501412991008 15.992806006554664 -29.61630741954567 15.992806006554664
S 1302.2230534747619 154.81009870799016 1302.2230534747619 99.1314407592443
s 13.623501412991008 -15.992806006554664 29.61630741954567 -15.992806006554664
S 1361.455668313853 43.452782810498434 1361.455668313853 99.1314407592443
z" id="path36" data-idx="150"></path>
<use stroke="#1654c0" y="0" x="0" href="#path-nq4q5u6dq7r-2" data-idx="151" transform="matrix(1,0,0,1,1356.7843017578125,128.43064880371094)">
  
</use><path stroke="none" fill="none" d="M 1374.4315459786364 652.152222920987
c 0 25.94930018588208 -6.349296853992423 7.4535223938171935 -13.802819247809616 7.4535223938171935
S 1346.8259074830173 678.1015231068691 1346.8259074830173 652.152222920987
s 6.349296853992423 -7.4535223938171935 13.802819247809616 -7.4535223938171935
S 1374.4315459786364 626.202922735105 1374.4315459786364 652.152222920987
z" id="path37" data-idx="154"></path>
<use stroke="#37ec94" y="0" x="0" href="#path-nq4q5u6dq7r-2" data-idx="155" transform="matrix(1,0,0,1,1359.9520263671875,659.6553344726562)">
  
</use><path stroke="none" fill="none" d="M 1439.417558218074 1483.7222990208134
c 0 62.243416359004634 -15.229772087841559 17.878428103118353 -33.10820019095991 17.878428103118353
S 1373.2011578361542 1545.965715379818 1373.2011578361542 1483.7222990208134
s 15.229772087841559 -17.878428103118353 33.10820019095991 -17.878428103118353
S 1439.417558218074 1421.4788826618087 1439.417558218074 1483.7222990208134
z" id="path38" data-idx="158"></path>
<use stroke="#37ec94" y="0" x="0" href="#path-nq4q5u6dq7r-3" data-idx="159" transform="matrix(1,0,0,1,1439.3885498046875,1479.23828125)">
  
</use><path stroke="none" fill="none" d="M 1448.4432225363896 1199.837550940852
c 0 29.100979516918052 -7.120452434990586 8.358791988901993 -15.47924442389258 8.358791988901993
S 1417.4847336886044 1228.93853045777 1417.4847336886044 1199.837550940852
s 7.120452434990586 -8.358791988901993 15.47924442389258 -8.358791988901993
S 1448.4432225363896 1170.736571423934 1448.4432225363896 1199.837550940852
z" id="path39" data-idx="162"></path>
<use stroke="#1654c0" y="0" x="0" href="#path-nq4q5u6dq7r-3" data-idx="163" transform="matrix(1,0,0,1,1417.785888671875,1191.356201171875)">
  
</use><path stroke="none" fill="none" d="M 1479.524096288056 1123.5666387091867
c 0 32.31415366385989 -7.9066546198806105 9.281724988555501 -17.18837960843611 9.281724988555501
S 1445.1473370711835 1155.8807923730467 1445.1473370711835 1123.5666387091867
s 7.9066546198806105 -9.281724988555501 17.18837960843611 -9.281724988555501
S 1479.524096288056 1091.2524850453267 1479.524096288056 1123.5666387091867
z" id="path40" data-idx="166"></path>
<use stroke="#1654c0" y="0" x="0" href="#path-nq4q5u6dq7r-2" data-idx="167" transform="matrix(1,0,0,1,1478.5008544921875,1109.6536865234375)">
  
</use><path stroke="none" fill="none" d="M 1545.392479258775 376.28913849222727
c 0 33.95677090583471 -8.30857160461913 9.753540579335503 -18.062112183954632 9.753540579335503
S 1509.2682548908656 410.245909398062 1509.2682548908656 376.28913849222727
s 8.30857160461913 -9.753540579335503 18.062112183954632 -9.753540579335503
S 1545.392479258775 342.33236758639254 1545.392479258775 376.28913849222727
z" id="path41" data-idx="170"></path>
<use stroke="#1654c0" y="0" x="0" href="#path-nq4q5u6dq7r-2" data-idx="171" transform="matrix(1,0,0,1,1515.197509765625,359.0144958496094)">
  
</use><path stroke="none" fill="none" d="M 1545.286067891758 884.0619066311234
c 0 19.82815580198892 -4.851570036656862 5.695321347379796 -10.546891384036659 5.695321347379796
S 1524.1922851236848 903.8900624331123 1524.1922851236848 884.0619066311234
s 4.851570036656862 -5.695321347379796 10.546891384036659 -5.695321347379796
S 1545.286067891758 864.2337508291345 1545.286067891758 884.0619066311234
z" id="path42" data-idx="174"></path>
<use stroke="#37ec94" y="0" x="0" href="#path-nq4q5u6dq7r-3" data-idx="175" transform="matrix(1,0,0,1,1541.8468017578125,894.1638793945312)">
  
</use><path stroke="none" fill="none" d="M 1613.7584393523405 1140.4819891872278
c 0 32.70474798238315 -8.002225570157577 9.393916973663243 -17.396142543820822 9.393916973663243
S 1578.9661542646988 1173.186737169611 1578.9661542646988 1140.4819891872278
s 8.002225570157577 -9.393916973663243 17.396142543820822 -9.393916973663243
S 1613.7584393523405 1107.7772412048446 1613.7584393523405 1140.4819891872278
z" id="path43" data-idx="178"></path>
<use stroke="#37ec94" y="0" x="0" href="#path-nq4q5u6dq7r-1" data-idx="179" transform="matrix(1,0,0,1,1579.812255859375,1153.7222900390625)">
  
</use><path stroke="none" fill="none" d="M 1661.9965702034417 904.4849521791047
c 0 52.80780483278532 -12.921058629298534 15.16819926048089 -28.089257889779425 15.16819926048089
S 1605.8180544238828 957.29275701189 1605.8180544238828 904.4849521791047
s 12.921058629298534 -15.16819926048089 28.089257889779425 -15.16819926048089
S 1661.9965702034417 851.6771473463193 1661.9965702034417 904.4849521791047
z" id="path44" data-idx="182"></path>
<use stroke="#912abb" y="0" x="0" href="#path-nq4q5u6dq7r-3" data-idx="183" transform="matrix(1,0,0,1,1605.8934326171875,898.0049438476562)">
  
</use><path stroke="none" fill="none" d="M 1698.9886076301161 697.8604388779006
c 0 60.4789511319202 -14.798041234406003 17.371613622998357 -32.16965485740436 17.371613622998357
S 1634.6492979153074 758.3393900098208 1634.6492979153074 697.8604388779006
s 14.798041234406003 -17.371613622998357 32.16965485740436 -17.371613622998357
S 1698.9886076301161 637.3814877459804 1698.9886076301161 697.8604388779006
z" id="path45" data-idx="186"></path>
<use stroke="#1654c0" y="0" x="0" href="#path-nq4q5u6dq7r-1" data-idx="187" transform="matrix(1,0,0,1,1635.2501220703125,680.5101318359375)">
  
</use><path stroke="none" fill="none" d="M 1718.5094819121125 1325.2389125981733
c 0 19.983970102058215 -4.889694812205733 5.740076518676297 -10.62977133088203 5.740076518676297
S 1697.2499392503485 1345.2228827002316 1697.2499392503485 1325.2389125981733
s 4.889694812205733 -5.740076518676297 10.62977133088203 -5.740076518676297
S 1718.5094819121125 1305.254942496115 1718.5094819121125 1325.2389125981733
z" id="path46" data-idx="190"></path>
<use stroke="#1654c0" y="0" x="0" href="#path-nq4q5u6dq7r-1" data-idx="191" transform="matrix(1,0,0,1,1718.5062255859375,1324.4266357421875)">
  
</use><path stroke="none" fill="none" d="M 1768.1112320939912 1391.3345101740804
c 0 48.9853155771357 -11.98576870504384 14.07025021896451 -26.05601892400835 14.07025021896451
S 1715.9991942459744 1440.319825751216 1715.9991942459744 1391.3345101740804
s 11.98576870504384 -14.07025021896451 26.05601892400835 -14.07025021896451
S 1768.1112320939912 1342.3491945969447 1768.1112320939912 1391.3345101740804
z" id="path47" data-idx="194"></path>
<use stroke="#912abb" y="0" x="0" href="#path-nq4q5u6dq7r-3" data-idx="195" transform="matrix(1,0,0,1,1765.5372314453125,1415.302978515625)">
  
</use><path stroke="none" fill="none" d="M 1786.3315205068125 1342.2669102455814
c 0 34.17461542577449 -8.361873987157589 9.816112941445866 -18.177986928603453 9.816112941445866
S 1749.9755466496053 1376.4415256713557 1749.9755466496053 1342.2669102455814
s 8.361873987157589 -9.816112941445866 18.177986928603453 -9.816112941445866
S 1786.3315205068125 1308.092294819807 1786.3315205068125 1342.2669102455814
z" id="path48" data-idx="198"></path>
<use stroke="#1654c0" y="0" x="0" href="#path-nq4q5u6dq7r-3" data-idx="199" transform="matrix(1,0,0,1,1785.889892578125,1353.1209716796875)">
  
</use><path stroke="none" fill="none" d="M 1806.7492620898188 1191.4156076947181
c 0 41.82188538595963 -10.233014509330546 12.012669206605427 -22.245683715935975 12.012669206605427
S 1762.257894657947 1233.2374930806777 1762.257894657947 1191.4156076947181
s 10.233014509330546 -12.012669206605427 22.245683715935975 -12.012669206605427
S 1806.7492620898188 1149.5937223087585 1806.7492620898188 1191.4156076947181
z" id="path49" data-idx="202"></path>
<use stroke="#1654c0" y="0" x="0" href="#path-nq4q5u6dq7r-3" data-idx="203" transform="matrix(1,0,0,1,1786.44140625,1179.1561279296875)">
  
</use><path stroke="none" fill="none" d="M 1887.591985257794 1218.8154764269907
c 0 63.85877147140557 -15.625018551514128 18.34241308221224 -33.96743163372636 18.34241308221224
S 1819.6571219903412 1282.6742478983963 1819.6571219903412 1218.8154764269907
s 15.625018551514128 -18.34241308221224 33.96743163372636 -18.34241308221224
S 1887.591985257794 1154.956704955585 1887.591985257794 1218.8154764269907
z" id="path50" data-idx="206"></path>
<use stroke="#1654c0" y="0" x="0" href="#path-nq4q5u6dq7r-2" data-idx="207" transform="matrix(1,0,0,1,1854.9725341796875,1200.39208984375)">
  
</use><path stroke="none" fill="none" d="M 1892.4058003619634 1506.5516963778484
c 0 51.89655671110946 -12.698093663356568 14.906457778722931 -27.604551442079497 14.906457778722931
S 1837.1966974778043 1558.448253088958 1837.1966974778043 1506.5516963778484
s 12.698093663356568 -14.906457778722931 27.604551442079497 -14.906457778722931
S 1892.4058003619634 1454.655139666739 1892.4058003619634 1506.5516963778484
z" id="path51" data-idx="210"></path>
<use stroke="#912abb" y="0" x="0" href="#path-nq4q5u6dq7r-1" data-idx="211" transform="matrix(1,0,0,1,1887.1629638671875,1478.9112548828125)">
  
</use><path stroke="none" fill="none" d="M 1944.1484138647866 1157.6677720465502
c 0 53.97197013510265 -13.20590758624852 15.502587166465656 -28.708494752714174 15.502587166465656
S 1886.7314243593582 1211.6397421816528 1886.7314243593582 1157.6677720465502
s 13.20590758624852 -15.502587166465656 28.708494752714174 -15.502587166465656
S 1944.1484138647866 1103.6958019114477 1944.1484138647866 1157.6677720465502
z" id="path52" data-idx="214"></path>
<use stroke="#1654c0" y="0" x="0" href="#path-nq4q5u6dq7r-1" data-idx="215" transform="matrix(1,0,0,1,1928.013671875,1179.6263427734375)">
  
</use><path stroke="none" fill="none" d="M 1942.8574021026695 229.27791361350285
c 0 34.410161449565905 -8.41950758872357 9.883769778066803 -18.303277366790375 9.883769778066803
S 1906.250847369089 263.68807506306877 1906.250847369089 229.27791361350285
s 8.41950758872357 -9.883769778066803 18.303277366790375 -9.883769778066803
S 1942.8574021026695 194.86775216393693 1942.8574021026695 229.27791361350285
z" id="path53" data-idx="218"></path>
<use stroke="#37ec94" y="0" x="0" href="#path-nq4q5u6dq7r-2" data-idx="219" transform="matrix(1,0,0,1,1942.82861328125,226.00112915039062)">
  
</use><path stroke="none" fill="none" d="M 1982.548666441736 1410.257638659128
c 0 21.026793339806616 -5.14485368952715 6.039610852923177 -11.184464542450328 6.039610852923177
S 1960.1797373568354 1431.2844319989345 1960.1797373568354 1410.257638659128
s 5.14485368952715 -6.039610852923177 11.184464542450328 -6.039610852923177
S 1982.548666441736 1389.2308453193214 1982.548666441736 1410.257638659128
z" id="path54" data-idx="222"></path>
<use stroke="#1654c0" y="0" x="0" href="#path-nq4q5u6dq7r-1" data-idx="223" transform="matrix(1,0,0,1,1960.68017578125,1401.9686279296875)">
  
</use><path stroke="none" fill="none" d="M 2030.083370784587 451.55701681509635
c 0 27.091628511955307 -6.628802721010341 7.781637976838227 -14.410440697848568 7.781637976838227
S 2001.26248938889 478.64864532705167 2001.26248938889 451.55701681509635
s 6.628802721010341 -7.781637976838227 14.410440697848568 -7.781637976838227
S 2030.083370784587 424.465388303141 2030.083370784587 451.55701681509635
z" id="path55" data-idx="226"></path>
<use stroke="#37ec94" y="0" x="0" href="#path-nq4q5u6dq7r-1" data-idx="227" transform="matrix(1,0,0,1,2006.8040771484375,464.7514953613281)">
  
</use><path stroke="none" fill="none" d="M 2059.7855838848213 354.09456663445707
c 0 30.63729043316994 -7.496358297477751 8.800072783995622 -16.296431081473372 8.800072783995622
S 2027.1927217218745 384.731857067627 2027.1927217218745 354.09456663445707
s 7.496358297477751 -8.800072783995622 16.296431081473372 -8.800072783995622
S 2059.7855838848213 323.45727620128713 2059.7855838848213 354.09456663445707
z" id="path56" data-idx="230"></path>
<use stroke="#37ec94" y="0" x="0" href="#path-nq4q5u6dq7r-3" data-idx="231" transform="matrix(1,0,0,1,2027.380859375,361.3150939941406)">
  
</use><path stroke="none" fill="none" d="M 2132.060828567114 1176.8478398389889
c 0 57.1919817471218 -13.993782767912778 16.427484118854135 -30.421266886766915 16.427484118854135
S 2071.2182947935808 1234.0398215861107 2071.2182947935808 1176.8478398389889
s 13.993782767912778 -16.427484118854135 30.421266886766915 -16.427484118854135
S 2132.060828567114 1119.655858091867 2132.060828567114 1176.8478398389889
z" id="path57" data-idx="234"></path>
<use stroke="#1654c0" y="0" x="0" href="#path-nq4q5u6dq7r-2" data-idx="235" transform="matrix(1,0,0,1,2075.642333984375,1206.6844482421875)">
  
</use><path stroke="none" fill="none" d="M 2160.710366851596 137.7381535329554
c 0 49.35995662747492 -12.077436196084287 14.177859882359819 -26.255296078444104 14.177859882359819
S 2108.1997746947077 187.09811016043034 2108.1997746947077 137.7381535329554
s 12.077436196084287 -14.177859882359819 26.255296078444104 -14.177859882359819
S 2160.710366851596 88.37819690548048 2160.710366851596 137.7381535329554
z" id="path58" data-idx="238"></path>
<use stroke="#1654c0" y="0" x="0" href="#path-nq4q5u6dq7r-1" data-idx="239" transform="matrix(1,0,0,1,2158.932861328125,159.7761688232422)">
  
</use><path stroke="none" fill="none" d="M 2186.129395555658 1427.974572753829
c 0 29.170207477706423 -7.137391191353698 8.378676615936952 -15.51606780729065 8.378676615936952
S 2155.0972599410766 1457.1447802315356 2155.0972599410766 1427.974572753829
s 7.137391191353698 -8.378676615936952 15.51606780729065 -8.378676615936952
S 2186.129395555658 1398.8043652761226 2186.129395555658 1427.974572753829
z" id="path59" data-idx="242"></path>
<use stroke="#1654c0" y="0" x="0" href="#path-nq4q5u6dq7r-1" data-idx="243" transform="matrix(1,0,0,1,2180.2001953125,1442.211181640625)">
  
</use><path stroke="none" fill="none" d="M 2210.304854609385 1092.6766253788542
c 0 52.01831038226644 -12.727884455235404 14.941429577885042 -27.669314033120447 14.941429577885042
S 2154.9662265431443 1144.6949357611206 2154.9662265431443 1092.6766253788542
s 12.727884455235404 -14.941429577885042 27.669314033120447 -14.941429577885042
S 2210.304854609385 1040.6583149965877 2210.304854609385 1092.6766253788542
z" id="path60" data-idx="246"></path>
<use stroke="#1654c0" y="0" x="0" href="#path-nq4q5u6dq7r-2" data-idx="247" transform="matrix(1,0,0,1,2192.6083984375,1112.0782470703125)">
  
</use><path stroke="none" fill="none" d="M 2267.85030775175 676.2459728544048
c 0 45.985017481175916 -11.251653213479212 13.208462467997338 -24.46011568147655 13.208462467997338
S 2218.930076388797 722.2309903355807 2218.930076388797 676.2459728544048
s 11.251653213479212 -13.208462467997338 24.46011568147655 -13.208462467997338
S 2267.85030775175 630.260955373229 2267.85030775175 676.2459728544048
z" id="path61" data-idx="250"></path>
<use stroke="#1654c0" y="0" x="0" href="#path-nq4q5u6dq7r-1" data-idx="251" transform="matrix(1,0,0,1,2267.27197265625,661.790283203125)">
  
</use><path stroke="none" fill="none" d="M 2292.1105766151118 1255.7911932073982
c 0 60.415699056524076 -14.782564662766527 17.35344547368245 -32.136010136448974 17.35344547368245
S 2227.838556342214 1316.2068922639223 2227.838556342214 1255.7911932073982
s 14.782564662766527 -17.35344547368245 32.136010136448974 -17.35344547368245
S 2292.1105766151118 1195.3754941508741 2292.1105766151118 1255.7911932073982
z" id="path62" data-idx="254"></path>
<use stroke="#37ec94" y="0" x="0" href="#path-nq4q5u6dq7r-3" data-idx="255" transform="matrix(1,0,0,1,2291.9638671875,1246.3240966796875)">
  
</use><path stroke="none" fill="none" d="M 2302.001946114505 1333.0340565332137
c 0 33.205697045992494 -8.12479821338114 9.537806598316992 -17.66260481169813 9.537806598316992
S 2266.6767364911084 1366.2397535792063 2266.6767364911084 1333.0340565332137
s 8.12479821338114 -9.537806598316992 17.66260481169813 -9.537806598316992
S 2302.001946114505 1299.8283594872212 2302.001946114505 1333.0340565332137
z" id="path63" data-idx="258"></path>
<use stroke="#1654c0" y="0" x="0" href="#path-nq4q5u6dq7r-3" data-idx="259" transform="matrix(1,0,0,1,2301.009033203125,1347.090087890625)">
  
</use><path stroke="none" fill="none" d="M 2360.1918700117503 332.9185674401077
c 0 38.831491653061754 -9.501322425749152 11.153726325879441 -20.65504875162859 11.153726325879441
S 2318.8817725084928 371.75005909316945 2318.8817725084928 332.9185674401077
s 9.501322425749152 -11.153726325879441 20.65504875162859 -11.153726325879441
S 2360.1918700117503 294.087075787046 2360.1918700117503 332.9185674401077
z" id="path64" data-idx="262"></path>
<use stroke="#1654c0" y="0" x="0" href="#path-nq4q5u6dq7r-1" data-idx="263" transform="matrix(1,0,0,1,2344.850830078125,319.9507751464844)">
  
</use><path stroke="none" fill="none" d="M 2410.6510331866857 491.8262925428978
c 0 59.36497969074581 -14.525473754118654 17.051643102661032 -31.577116856779686 17.051643102661032
S 2347.496799473126 551.1912722336436 2347.496799473126 491.8262925428978
s 14.525473754118654 -17.051643102661032 31.577116856779686 -17.051643102661032
S 2410.6510331866857 432.461312852152 2410.6510331866857 491.8262925428978
z" id="path65" data-idx="266"></path>
<use stroke="#912abb" y="0" x="0" href="#path-nq4q5u6dq7r-2" data-idx="267" transform="matrix(1,0,0,1,2347.840576171875,505.4637756347656)">
  
</use><path stroke="none" fill="none" d="M 2406.5653751585833 109.27575468388025
c 0 25.56164770849673 -6.254445715908774 7.342175405632039 -13.596621121540814 7.342175405632039
S 2379.3721329155014 134.837402392377 2379.3721329155014 109.27575468388025
s 6.254445715908774 -7.342175405632039 13.596621121540814 -7.342175405632039
S 2406.5653751585833 83.71410697538352 2406.5653751585833 109.27575468388025
z" id="path66" data-idx="270"></path>
<use stroke="#37ec94" y="0" x="0" href="#path-nq4q5u6dq7r-1" data-idx="271" transform="matrix(1,0,0,1,2379.37255859375,109.4260482788086)">
  
</use><path stroke="none" fill="none" d="M 2458.0005610567587 123.39329543790079
c 0 49.034921811217416 -11.997906400617026 14.084498818115641 -26.082405218732667 14.084498818115641
S 2405.8357506192933 172.4282172491182 2405.8357506192933 123.39329543790079
s 11.997906400617026 -14.084498818115641 26.082405218732667 -14.084498818115641
S 2458.0005610567587 74.35837362668337 2458.0005610567587 123.39329543790079
z" id="path67" data-idx="274"></path>
<use stroke="#37ec94" y="0" x="0" href="#path-nq4q5u6dq7r-3" data-idx="275" transform="matrix(1,0,0,1,2453.421142578125,97.37388610839844)">
  
</use><path stroke="none" fill="none" d="M 2502.975586527659 464.1767138481119
c 0 40.41000327227903 -9.887553992153379 11.607128599484403 -21.494682591637783 11.607128599484403
S 2459.9862213443835 504.5867171203909 2459.9862213443835 464.1767138481119
s 9.887553992153379 -11.607128599484403 21.494682591637783 -11.607128599484403
S 2502.975586527659 423.76671057583286 2502.975586527659 464.1767138481119
z" id="path68" data-idx="278"></path>
<use stroke="#37ec94" y="0" x="0" href="#path-nq4q5u6dq7r-3" data-idx="279" transform="matrix(1,0,0,1,2484.75830078125,476.4892883300781)">
  
</use><path stroke="none" fill="none" d="M 2536.9964492417125 635.32232321769
c 0 20.341256017415116 -4.977115834048379 5.842701196491577 -10.819817030539955 5.842701196491577
S 2515.3568151806326 655.6635792351052 2515.3568151806326 635.32232321769
s 4.977115834048379 -5.842701196491577 10.819817030539955 -5.842701196491577
S 2536.9964492417125 614.9810672002749 2536.9964492417125 635.32232321769
z" id="path69" data-idx="282"></path>
<use stroke="#37ec94" y="0" x="0" href="#path-nq4q5u6dq7r-1" data-idx="283" transform="matrix(1,0,0,1,2516.52099609375,645.4464111328125)">
  
</use><g data-idx="286"></g></g><text data-watermark="true" text-anchor="middle" dominant-baseline="middle" stroke-opacity="0.1" fill="black" fill-opacity="0.1" stroke="white" stroke-width="1" font-size="15.0" x="1280.0" y="800.0" data-idx="287" style="opacity: 1; font-size: 15px;">LOADING.IO</text></svg>